<mxfile host="app.diagrams.net" agent="Mozilla/5.0 (X11; Linux x86_64) AppleWebKit/537.36 (KHTML, like Gecko) Chrome/128.0.0.0 Safari/537.36 OPR/114.0.0.0" version="26.0.10">
  <diagram name="Página-1" id="LybHadXCt3fGsKPdj9bP">
    <mxGraphModel dx="1624" dy="893" grid="1" gridSize="10" guides="1" tooltips="1" connect="1" arrows="1" fold="1" page="1" pageScale="1" pageWidth="827" pageHeight="1169" math="0" shadow="0">
      <root>
        <mxCell id="0" />
        <mxCell id="1" parent="0" />
        <mxCell id="AOXXkha6pnkB0oMLbgMj-1" value="CreateView" style="swimlane;fontStyle=0;childLayout=stackLayout;horizontal=1;startSize=26;fillColor=none;horizontalStack=0;resizeParent=1;resizeParentMax=0;resizeLast=0;collapsible=1;marginBottom=0;whiteSpace=wrap;html=1;" vertex="1" parent="1">
          <mxGeometry x="5" y="100" width="160" height="200" as="geometry" />
        </mxCell>
        <mxCell id="AOXXkha6pnkB0oMLbgMj-2" value="+ criar_aluno()&lt;div&gt;+ criar_treinoaluno()&lt;/div&gt;&lt;div&gt;+ criar_treino()&lt;/div&gt;&lt;div&gt;+ criar_musculo()&lt;/div&gt;&lt;div&gt;+ criar_medição()&lt;/div&gt;&lt;div&gt;+ criar_medida()&lt;/div&gt;&lt;div&gt;+ criar_partcorpo()&lt;/div&gt;&lt;div&gt;+ matricular_aluno()&lt;/div&gt;&lt;div&gt;+ criar_plano()&lt;/div&gt;&lt;div&gt;+ criar_pagamento()&lt;/div&gt;&lt;div&gt;&lt;br&gt;&lt;/div&gt;" style="text;strokeColor=none;fillColor=none;align=left;verticalAlign=top;spacingLeft=4;spacingRight=4;overflow=hidden;rotatable=0;points=[[0,0.5],[1,0.5]];portConstraint=eastwest;whiteSpace=wrap;html=1;" vertex="1" parent="AOXXkha6pnkB0oMLbgMj-1">
          <mxGeometry y="26" width="160" height="174" as="geometry" />
        </mxCell>
        <mxCell id="AOXXkha6pnkB0oMLbgMj-5" value="DeleteView" style="swimlane;fontStyle=0;childLayout=stackLayout;horizontal=1;startSize=26;fillColor=none;horizontalStack=0;resizeParent=1;resizeParentMax=0;resizeLast=0;collapsible=1;marginBottom=0;whiteSpace=wrap;html=1;" vertex="1" parent="1">
          <mxGeometry x="540" y="100" width="140" height="200" as="geometry" />
        </mxCell>
        <mxCell id="AOXXkha6pnkB0oMLbgMj-6" value="+ &lt;span class=&quot;hljs-built_in&quot;&gt;excluir_aluno&lt;/span&gt;()&lt;br&gt;+ &lt;span class=&quot;hljs-built_in&quot;&gt;excluir_treinoaluno&lt;/span&gt;()&lt;br&gt;+ &lt;span class=&quot;hljs-built_in&quot;&gt;excluir_treino&lt;/span&gt;()&lt;br&gt;+ &lt;span class=&quot;hljs-built_in&quot;&gt;excluir_musculo&lt;/span&gt;()&lt;br&gt;+ &lt;span class=&quot;hljs-built_in&quot;&gt;excluir_medicao&lt;/span&gt;()&lt;br&gt;+ &lt;span class=&quot;hljs-built_in&quot;&gt;excluir_medida&lt;/span&gt;()&lt;br&gt;+ &lt;span class=&quot;hljs-built_in&quot;&gt;excluir_partecorpo&lt;/span&gt;()&lt;br&gt;+ &lt;span class=&quot;hljs-built_in&quot;&gt;excluir_matricula&lt;/span&gt;()&lt;br&gt;+ &lt;span class=&quot;hljs-built_in&quot;&gt;excluir_plano&lt;/span&gt;()&lt;br&gt;+ &lt;span class=&quot;hljs-built_in&quot;&gt;excluir_pagamento&lt;/span&gt;()&lt;div&gt;&lt;br&gt;&lt;/div&gt;" style="text;strokeColor=none;fillColor=none;align=left;verticalAlign=top;spacingLeft=4;spacingRight=4;overflow=hidden;rotatable=0;points=[[0,0.5],[1,0.5]];portConstraint=eastwest;whiteSpace=wrap;html=1;" vertex="1" parent="AOXXkha6pnkB0oMLbgMj-5">
          <mxGeometry y="26" width="140" height="174" as="geometry" />
        </mxCell>
        <mxCell id="AOXXkha6pnkB0oMLbgMj-7" value="UpdateView" style="swimlane;fontStyle=0;childLayout=stackLayout;horizontal=1;startSize=26;fillColor=none;horizontalStack=0;resizeParent=1;resizeParentMax=0;resizeLast=0;collapsible=1;marginBottom=0;whiteSpace=wrap;html=1;" vertex="1" parent="1">
          <mxGeometry x="15" y="500" width="150" height="260" as="geometry" />
        </mxCell>
        <mxCell id="AOXXkha6pnkB0oMLbgMj-8" value="+ &lt;span class=&quot;hljs-built_in&quot;&gt;atualizar_aluno&lt;/span&gt;()&lt;br&gt;+ &lt;span class=&quot;hljs-built_in&quot;&gt;atualizar_treinoaluno&lt;/span&gt;()&lt;br&gt;+ &lt;span class=&quot;hljs-built_in&quot;&gt;atualizar_treino&lt;/span&gt;()&lt;br&gt;+ &lt;span class=&quot;hljs-built_in&quot;&gt;atualizar_musculo&lt;/span&gt;()&lt;br&gt;+ &lt;span class=&quot;hljs-built_in&quot;&gt;atualizar_medicao&lt;/span&gt;()&lt;br&gt;+ &lt;span class=&quot;hljs-built_in&quot;&gt;atualizar_medida&lt;/span&gt;()&lt;br&gt;+ &lt;span class=&quot;hljs-built_in&quot;&gt;atualizar_partecorpo&lt;/span&gt;()&lt;br&gt;+ &lt;span class=&quot;hljs-built_in&quot;&gt;atualizar_matricula&lt;/span&gt;()&lt;br&gt;+ &lt;span class=&quot;hljs-built_in&quot;&gt;atualizar_plano&lt;/span&gt;()&lt;br&gt;+ &lt;span class=&quot;hljs-built_in&quot;&gt;atualizar_pagamento&lt;/span&gt;()&lt;div&gt;&lt;br&gt;&lt;/div&gt;" style="text;strokeColor=none;fillColor=none;align=left;verticalAlign=top;spacingLeft=4;spacingRight=4;overflow=hidden;rotatable=0;points=[[0,0.5],[1,0.5]];portConstraint=eastwest;whiteSpace=wrap;html=1;" vertex="1" parent="AOXXkha6pnkB0oMLbgMj-7">
          <mxGeometry y="26" width="150" height="234" as="geometry" />
        </mxCell>
        <mxCell id="AOXXkha6pnkB0oMLbgMj-9" value="ReadView" style="swimlane;fontStyle=0;childLayout=stackLayout;horizontal=1;startSize=26;fillColor=none;horizontalStack=0;resizeParent=1;resizeParentMax=0;resizeLast=0;collapsible=1;marginBottom=0;whiteSpace=wrap;html=1;" vertex="1" parent="1">
          <mxGeometry x="480" y="510" width="220" height="270" as="geometry" />
        </mxCell>
        <mxCell id="AOXXkha6pnkB0oMLbgMj-10" value="+ &lt;span class=&quot;hljs-built_in&quot;&gt;listar_aluno&lt;/span&gt;()&lt;br&gt;+ &lt;span class=&quot;hljs-built_in&quot;&gt;listar_treinoaluno&lt;/span&gt;()&lt;br&gt;+ &lt;span class=&quot;hljs-built_in&quot;&gt;listar_treino&lt;/span&gt;()&lt;br&gt;+ &lt;span class=&quot;hljs-built_in&quot;&gt;listar_musculo&lt;/span&gt;()&lt;br&gt;+ &lt;span class=&quot;hljs-built_in&quot;&gt;listar_medicao&lt;/span&gt;()&lt;br&gt;+ &lt;span class=&quot;hljs-built_in&quot;&gt;listar_medida&lt;/span&gt;()&lt;br&gt;+ &lt;span class=&quot;hljs-built_in&quot;&gt;listar_partecorpo&lt;/span&gt;()&lt;br&gt;+ &lt;span class=&quot;hljs-built_in&quot;&gt;listar_matricula&lt;/span&gt;()&lt;br&gt;+ &lt;span class=&quot;hljs-built_in&quot;&gt;listar_plano&lt;/span&gt;()&lt;br&gt;+ &lt;span class=&quot;hljs-built_in&quot;&gt;listar_pagamento&lt;/span&gt;()&lt;div&gt;+ &lt;span class=&quot;hljs-built_in&quot;&gt;buscar_aluno&lt;/span&gt;()&lt;br&gt;+ &lt;span class=&quot;hljs-built_in&quot;&gt;buscar_treinoaluno&lt;/span&gt;()&lt;/div&gt;&lt;div&gt;+ buscar_matriculas()&lt;br&gt;+ &lt;span class=&quot;hljs-built_in&quot;&gt;buscar_medicaoaluno&lt;/span&gt;()&lt;br&gt;&lt;/div&gt;&lt;div&gt;+ &lt;span class=&quot;hljs-built_in&quot;&gt;listar_treinos_passados_aluno&lt;/span&gt;()&lt;br&gt;+ &lt;span class=&quot;hljs-built_in&quot;&gt;listar_medicoes_passadas_aluno&lt;/span&gt;()&lt;br&gt;&lt;/div&gt;" style="text;strokeColor=none;fillColor=none;align=left;verticalAlign=top;spacingLeft=4;spacingRight=4;overflow=hidden;rotatable=0;points=[[0,0.5],[1,0.5]];portConstraint=eastwest;whiteSpace=wrap;html=1;" vertex="1" parent="AOXXkha6pnkB0oMLbgMj-9">
          <mxGeometry y="26" width="220" height="244" as="geometry" />
        </mxCell>
        <mxCell id="AOXXkha6pnkB0oMLbgMj-12" value="View" style="swimlane;fontStyle=0;childLayout=stackLayout;horizontal=1;startSize=26;fillColor=none;horizontalStack=0;resizeParent=1;resizeParentMax=0;resizeLast=0;collapsible=1;marginBottom=0;whiteSpace=wrap;html=1;" vertex="1" parent="1">
          <mxGeometry x="240" y="330" width="180" height="150" as="geometry" />
        </mxCell>
        <mxCell id="AOXXkha6pnkB0oMLbgMj-13" value="&lt;div&gt;+ validar_login()&lt;/div&gt;&lt;div&gt;+ &lt;span class=&quot;hljs-built_in&quot;&gt;renovar_matricula&lt;/span&gt;()&lt;br&gt;&lt;/div&gt;&lt;div&gt;+ &lt;span class=&quot;hljs-built_in&quot;&gt;cancelar_matricula&lt;/span&gt;()&lt;br&gt;&lt;/div&gt;&lt;div&gt;+ &lt;span class=&quot;hljs-built_in&quot;&gt;calcular_rendimento_mes&lt;/span&gt;()&lt;br&gt;&lt;/div&gt;&lt;div&gt;+ deventes_do_mes()&lt;/div&gt;&lt;div&gt;+ pagamentos_do_mes()&lt;/div&gt;&lt;div&gt;+ renovar_treino()&lt;/div&gt;&lt;div&gt;+ renovar_mediçao()&lt;/div&gt;" style="text;strokeColor=none;fillColor=none;align=left;verticalAlign=top;spacingLeft=4;spacingRight=4;overflow=hidden;rotatable=0;points=[[0,0.5],[1,0.5]];portConstraint=eastwest;whiteSpace=wrap;html=1;" vertex="1" parent="AOXXkha6pnkB0oMLbgMj-12">
          <mxGeometry y="26" width="180" height="124" as="geometry" />
        </mxCell>
        <mxCell id="AOXXkha6pnkB0oMLbgMj-14" style="rounded=0;orthogonalLoop=1;jettySize=auto;html=1;exitX=0;exitY=0;exitDx=0;exitDy=0;entryX=1.006;entryY=0.981;entryDx=0;entryDy=0;entryPerimeter=0;" edge="1" parent="1" source="AOXXkha6pnkB0oMLbgMj-9" target="AOXXkha6pnkB0oMLbgMj-13">
          <mxGeometry relative="1" as="geometry" />
        </mxCell>
        <mxCell id="AOXXkha6pnkB0oMLbgMj-15" style="rounded=0;orthogonalLoop=1;jettySize=auto;html=1;exitX=0;exitY=0.5;exitDx=0;exitDy=0;entryX=1;entryY=0;entryDx=0;entryDy=0;" edge="1" parent="1" source="AOXXkha6pnkB0oMLbgMj-6" target="AOXXkha6pnkB0oMLbgMj-12">
          <mxGeometry relative="1" as="geometry" />
        </mxCell>
        <mxCell id="AOXXkha6pnkB0oMLbgMj-16" style="rounded=0;orthogonalLoop=1;jettySize=auto;html=1;exitX=1;exitY=0.5;exitDx=0;exitDy=0;entryX=0;entryY=0;entryDx=0;entryDy=0;" edge="1" parent="1" source="AOXXkha6pnkB0oMLbgMj-2" target="AOXXkha6pnkB0oMLbgMj-12">
          <mxGeometry relative="1" as="geometry" />
        </mxCell>
        <mxCell id="AOXXkha6pnkB0oMLbgMj-17" style="rounded=0;orthogonalLoop=1;jettySize=auto;html=1;exitX=1;exitY=0;exitDx=0;exitDy=0;entryX=-0.006;entryY=0.981;entryDx=0;entryDy=0;entryPerimeter=0;" edge="1" parent="1" source="AOXXkha6pnkB0oMLbgMj-7" target="AOXXkha6pnkB0oMLbgMj-13">
          <mxGeometry relative="1" as="geometry" />
        </mxCell>
        <mxCell id="AOXXkha6pnkB0oMLbgMj-22" value="viewaluno" style="swimlane;fontStyle=0;childLayout=stackLayout;horizontal=1;startSize=26;fillColor=none;horizontalStack=0;resizeParent=1;resizeParentMax=0;resizeLast=0;collapsible=1;marginBottom=0;whiteSpace=wrap;html=1;" vertex="1" parent="1">
          <mxGeometry x="810" y="330" width="200" height="170" as="geometry" />
        </mxCell>
        <mxCell id="AOXXkha6pnkB0oMLbgMj-23" value="+ validar_login()&lt;div&gt;&lt;div&gt;+ listar_pagamentos()&lt;br&gt;&lt;div&gt;+ pagar_mensalidade()&lt;/div&gt;&lt;div&gt;+ listar_treinos()&lt;/div&gt;&lt;div&gt;+ listar_treinos passados()&lt;/div&gt;&lt;div&gt;+ listar_matricula()&lt;/div&gt;&lt;div&gt;+ listar_matriculas_passadas()&lt;/div&gt;&lt;/div&gt;&lt;/div&gt;&lt;div&gt;+ listar_mediçoes()&lt;/div&gt;&lt;div&gt;+ listar_mediçoes_passadas()&lt;/div&gt;" style="text;strokeColor=none;fillColor=none;align=left;verticalAlign=top;spacingLeft=4;spacingRight=4;overflow=hidden;rotatable=0;points=[[0,0.5],[1,0.5]];portConstraint=eastwest;whiteSpace=wrap;html=1;" vertex="1" parent="AOXXkha6pnkB0oMLbgMj-22">
          <mxGeometry y="26" width="200" height="144" as="geometry" />
        </mxCell>
      </root>
    </mxGraphModel>
  </diagram>
</mxfile>
